<?xml version="1.0" encoding="UTF-8" standalone="no"?>
<svg
   xmlns:dc="http://purl.org/dc/elements/1.1/"
   xmlns:cc="http://creativecommons.org/ns#"
   xmlns:rdf="http://www.w3.org/1999/02/22-rdf-syntax-ns#"
   xmlns:svg="http://www.w3.org/2000/svg"
   xmlns="http://www.w3.org/2000/svg"
   id="svg8"
   version="1.1"
   viewBox="0 0 210 297"
   height="297mm"
   width="210mm">
  <defs
     id="defs2">
    <pattern
       patternUnits="userSpaceOnUse"
       width="2"
       height="1"
       patternTransform="translate(0,0) scale(10,10)"
       id="Strips1_1">
      <rect
         style="fill:black;stroke:none"
         x="0"
         y="-0.5"
         width="1"
         height="2"
         id="rect1577" />
    </pattern>
  </defs>
  <metadata
     id="metadata5">
    <rdf:RDF>
      <cc:Work
         rdf:about="">
        <dc:format>image/svg+xml</dc:format>
        <dc:type
           rdf:resource="http://purl.org/dc/dcmitype/StillImage" />
        <dc:title></dc:title>
      </cc:Work>
    </rdf:RDF>
  </metadata>
  <g
     id="layer1">
    <text
       id="text823"
       y="128.23363"
       x="66.204903"
       style="font-style:normal;font-weight:normal;font-size:3.52777767px;line-height:1.25;font-family:sans-serif;letter-spacing:0px;word-spacing:0px;fill:#000000;fill-opacity:1;stroke:none;stroke-width:0.26458332"
       xml:space="preserve"><tspan
         style="font-style:normal;font-variant:normal;font-weight:bold;font-stretch:normal;font-size:8.46666622px;line-height:1.25;font-family:sans-serif;-inkscape-font-specification:'sans-serif Bold';text-align:center;text-anchor:middle;stroke-width:0.26458332"
         y="128.23363"
         x="66.204903"
         id="tspan821">Dar</tspan><tspan
         id="tspan825"
         style="font-style:normal;font-variant:normal;font-weight:bold;font-stretch:normal;font-size:8.46666622px;line-height:1.25;font-family:sans-serif;-inkscape-font-specification:'sans-serif Bold';text-align:center;text-anchor:middle;stroke-width:0.26458332"
         y="138.81696"
         x="66.204903">Ksen</tspan></text>
    <path
       d="m 67.613962,124.32386 a 34.11235,18.615326 0 0 1 27.586387,-8.36798 34.11235,18.615326 0 0 1 28.356921,7.56216"
       id="path831"
       style="opacity:0;fill:#d4aa00;fill-opacity:0.64824123;stroke-width:0.26458332" />
    <path
       d="m 106.37877,137.08179 a 3.3072915,9.1659222 0 0 1 2.67458,-4.12027 3.3072915,9.1659222 0 0 1 2.74929,3.7235"
       id="path833"
       style="opacity:0;fill:#d4aa00;fill-opacity:0.64824123;stroke-width:0.26458332" />
    <path
       d="M 67.148907,75.612555 A 11.811756,15.780506 0 0 1 77.83583,68.551762 11.811756,15.780506 0 0 1 87.684089,77.529205 11.811756,15.780506 0 0 1 86.660187,93.39858 L 77.01265,84.2939 Z"
       id="path843"
       style="opacity:0;fill:#d4aa00;fill-opacity:0.64824123;stroke:url(#Strips1_1);stroke-width:0.26458332;stroke-opacity:1" />
    <path
       id="path2299"
       d="m 55.184522,118.40624 c -7.937499,5.48066 -5.291666,21.16668 2.267858,24.37947 7.559524,3.2128 18.520832,4.9137 22.678572,-3.21279 4.157736,-8.12649 4.696659,-16.75069 -8.315478,-21.54464 -10.772322,-3.96875 -16.630952,0.37796 -16.630952,0.37796 z"
       style="fill:none;stroke:#000000;stroke-width:0.26458332px;stroke-linecap:butt;stroke-linejoin:miter;stroke-opacity:1" />
    <path
       transform="scale(0.26458333)"
       id="path2301"
       d="m 251.3349,548.38562 c -9.84267,-1.28262 -26.35,-6.0563 -34.83511,-10.07381 -14.62019,-6.92234 -25.1907,-28.11619 -25.15249,-50.43073 0.026,-15.20024 4.70073,-27.61121 13.62168,-36.16453 13.05552,-12.51752 40.61145,-14.45764 66.55901,-4.68619 22.56029,8.49585 36.0807,21.24074 39.44197,37.17963 1.33926,6.35068 1.34245,10.08916 0.0151,17.70079 -1.28418,7.36402 -3.68479,14.30262 -8.08373,23.36474 -5.51968,11.37089 -14.06435,18.48146 -26.23393,21.83095 -4.22256,1.16218 -20.08395,1.9631 -25.33249,1.27915 z m -35.71428,-27.59876 0.35714,-4.13742 4.26335,4.31599 c 4.14432,4.19548 4.36869,4.31599 8.03572,4.31599 2.0748,0 3.77236,-0.24817 3.77236,-0.55149 0,-0.30331 -2.67794,-3.21551 -5.95098,-6.47155 l -5.95098,-5.92006 5.23669,-5.07774 c 2.88019,-2.79275 5.2367,-5.34484 5.2367,-5.67131 0,-0.32646 -1.6774,-0.59357 -3.72754,-0.59357 -3.53525,0 -3.92215,0.1922 -7.5,3.7256 l -3.77246,3.7256 v -3.7256 -3.7256 h -3.57143 -3.57143 v 12.182 12.18199 l 3.39286,-0.21771 3.39285,-0.21771 z m 31.36539,2.76602 c 1.01076,-0.91473 1.49175,-2.2191 1.49175,-4.04543 0,-3.02802 -1.31666,-4.72901 -4.15709,-5.37053 -5.18391,-1.17081 -5.8486,-1.40657 -5.83562,-2.06979 0.0166,-0.84821 5.37906,-0.92976 7.67128,-0.11667 1.46631,0.52013 1.60714,0.35409 1.60714,-1.89474 0,-2.92042 -0.92653,-3.32126 -7.71104,-3.33598 -3.82929,-0.008 -4.75698,0.25048 -6.25,1.74349 -1.93252,1.93253 -2.18116,3.66892 -0.92131,6.43401 0.79853,1.75257 2.27005,2.41593 7.96881,3.59233 1.14435,0.23623 1.8879,0.79038 1.72082,1.28248 -0.33279,0.98017 -5.6989,1.15613 -8.20013,0.2689 -1.4688,-0.52101 -1.60715,-0.35525 -1.60715,1.92567 0,3.01658 0.62905,3.27081 7.6154,3.07768 3.87391,-0.10709 5.47743,-0.46905 6.60714,-1.49142 z m 20.24175,0.97669 c 2.27637,-0.63217 2.67857,-1.04272 2.67857,-2.73411 0,-2.72754 -0.45196,-2.97933 -3.2496,-1.81039 -4.11758,1.72043 -8.89326,1.03571 -8.89326,-1.27508 0,-0.31429 2.74223,-0.57143 6.09385,-0.57143 6.95024,0 7.49769,-0.4464 6.1331,-5.00098 -1.25143,-4.17693 -4.37229,-6.42993 -8.88889,-6.41706 -6.63682,0.0189 -9.9242,3.06474 -9.87705,9.1513 0.0341,4.3953 0.90771,6.18838 3.90601,8.01658 2.55544,1.55816 7.79533,1.83588 12.09727,0.64117 z m 12.67857,-3.78442 c 0,-7.0537 1.67642,-10.43179 4.61694,-9.30341 0.79035,0.30328 1.0954,1.99738 1.25,6.94186 l 0.20449,6.54067 3.03571,0.21965 3.03572,0.21964 v -7.44474 c 0,-6.45008 -0.19779,-7.6962 -1.48042,-9.32679 -1.17997,-1.5001 -2.08995,-1.88204 -4.48392,-1.88204 -1.65193,0 -3.71789,0.50037 -4.59101,1.11193 -1.43682,1.00638 -1.58751,1.00638 -1.58751,0 0,-0.82106 -0.74739,-1.11193 -2.85714,-1.11193 h -2.85714 v 9.28571 9.28572 h 2.85714 2.85714 z m -42.01691,-37.67084 c 5.34193,-2.72525 7.33889,-12.00281 3.64913,-16.95324 -2.72496,-3.65599 -5.60985,-4.72073 -13.59119,-5.01618 l -7.32674,-0.27122 v 11.74769 c 0,6.46122 0.24107,11.99874 0.53571,12.30559 1.04755,1.09095 13.73576,-0.28352 16.73309,-1.81264 z m 18.39191,1.31425 c 0.75714,-0.71429 1.01191,-0.71429 1.27381,0 0.19573,0.53382 1.62213,0.89286 3.54716,0.89286 h 3.21978 l -0.24359,-7.56316 c -0.23401,-7.26577 -0.32239,-7.63088 -2.2477,-9.28571 -1.74571,-1.50045 -2.71277,-1.72115 -7.5,-1.71162 -3.02274,0.006 -5.92341,0.28196 -6.44594,0.61321 -1.34836,0.85479 -0.81213,4.83603 0.59291,4.40207 2.35746,-0.72814 8.80663,-0.36717 9.10296,0.50949 0.21359,0.63189 -0.70729,0.89594 -3.15058,0.90339 -4.24709,0.013 -6.72688,1.19773 -7.98088,3.81304 -1.98361,4.13695 1.00706,8.31929 5.9489,8.31929 1.61521,0 3.36264,-0.40179 3.88317,-0.89286 z m 18.625,-4.30535 c 0,-6.64471 1.14343,-8.5699 4.89578,-8.24297 2.54077,0.22136 2.60962,0.16163 2.82591,-2.45168 0.21985,-2.65631 0.19953,-2.67857 -2.44375,-2.67857 -1.47786,0 -3.24745,0.5267 -3.9717,1.18213 -1.21547,1.09999 -1.30624,1.09999 -1.30624,0 0,-0.92486 -0.69955,-1.18213 -3.21428,-1.18213 h -3.21429 v 8.80952 c 0,4.84524 0.21429,9.02381 0.47619,9.28572 0.2619,0.2619 1.70833,0.47619 3.21429,0.47619 h 2.73809 z"
       style="opacity:0;fill:#800000;fill-opacity:0.64824123;stroke:#000000;stroke-width:0.71428573;stroke-opacity:1" />
    <path
       transform="scale(0.26458333)"
       id="path2303"
       d="m 251.3349,548.38562 c -9.84267,-1.28262 -26.35,-6.0563 -34.83511,-10.07381 -14.62019,-6.92234 -25.1907,-28.11619 -25.15249,-50.43073 0.026,-15.20024 4.70073,-27.61121 13.62168,-36.16453 13.05552,-12.51752 40.61145,-14.45764 66.55901,-4.68619 22.56029,8.49585 36.0807,21.24074 39.44197,37.17963 1.33926,6.35068 1.34245,10.08916 0.0151,17.70079 -1.28418,7.36402 -3.68479,14.30262 -8.08373,23.36474 -5.51968,11.37089 -14.06435,18.48146 -26.23393,21.83095 -4.22256,1.16218 -20.08395,1.9631 -25.33249,1.27915 z m -35.71428,-27.59876 0.35714,-4.13742 4.26335,4.31599 c 4.14432,4.19548 4.36869,4.31599 8.03572,4.31599 2.0748,0 3.77236,-0.24817 3.77236,-0.55149 0,-0.30331 -2.67794,-3.21551 -5.95098,-6.47155 l -5.95098,-5.92006 5.23669,-5.07774 c 2.88019,-2.79275 5.2367,-5.34484 5.2367,-5.67131 0,-0.32646 -1.6774,-0.59357 -3.72754,-0.59357 -3.53525,0 -3.92215,0.1922 -7.5,3.7256 l -3.77246,3.7256 v -3.7256 -3.7256 h -3.57143 -3.57143 v 12.182 12.18199 l 3.39286,-0.21771 3.39285,-0.21771 z m 31.36539,2.76602 c 1.01076,-0.91473 1.49175,-2.2191 1.49175,-4.04543 0,-3.02802 -1.31666,-4.72901 -4.15709,-5.37053 -5.18391,-1.17081 -5.8486,-1.40657 -5.83562,-2.06979 0.0166,-0.84821 5.37906,-0.92976 7.67128,-0.11667 1.46631,0.52013 1.60714,0.35409 1.60714,-1.89474 0,-2.92042 -0.92653,-3.32126 -7.71104,-3.33598 -3.82929,-0.008 -4.75698,0.25048 -6.25,1.74349 -1.93252,1.93253 -2.18116,3.66892 -0.92131,6.43401 0.79853,1.75257 2.27005,2.41593 7.96881,3.59233 1.14435,0.23623 1.8879,0.79038 1.72082,1.28248 -0.33279,0.98017 -5.6989,1.15613 -8.20013,0.2689 -1.4688,-0.52101 -1.60715,-0.35525 -1.60715,1.92567 0,3.01658 0.62905,3.27081 7.6154,3.07768 3.87391,-0.10709 5.47743,-0.46905 6.60714,-1.49142 z m 20.24175,0.97669 c 2.27637,-0.63217 2.67857,-1.04272 2.67857,-2.73411 0,-2.72754 -0.45196,-2.97933 -3.2496,-1.81039 -4.11758,1.72043 -8.89326,1.03571 -8.89326,-1.27508 0,-0.31429 2.74223,-0.57143 6.09385,-0.57143 6.95024,0 7.49769,-0.4464 6.1331,-5.00098 -1.25143,-4.17693 -4.37229,-6.42993 -8.88889,-6.41706 -6.63682,0.0189 -9.9242,3.06474 -9.87705,9.1513 0.0341,4.3953 0.90771,6.18838 3.90601,8.01658 2.55544,1.55816 7.79533,1.83588 12.09727,0.64117 z m 12.67857,-3.78442 c 0,-7.0537 1.67642,-10.43179 4.61694,-9.30341 0.79035,0.30328 1.0954,1.99738 1.25,6.94186 l 0.20449,6.54067 3.03571,0.21965 3.03572,0.21964 v -7.44474 c 0,-6.45008 -0.19779,-7.6962 -1.48042,-9.32679 -1.17997,-1.5001 -2.08995,-1.88204 -4.48392,-1.88204 -1.65193,0 -3.71789,0.50037 -4.59101,1.11193 -1.43682,1.00638 -1.58751,1.00638 -1.58751,0 0,-0.82106 -0.74739,-1.11193 -2.85714,-1.11193 h -2.85714 v 9.28571 9.28572 h 2.85714 2.85714 z m -42.01691,-37.67084 c 5.34193,-2.72525 7.33889,-12.00281 3.64913,-16.95324 -2.72496,-3.65599 -5.60985,-4.72073 -13.59119,-5.01618 l -7.32674,-0.27122 v 11.74769 c 0,6.46122 0.24107,11.99874 0.53571,12.30559 1.04755,1.09095 13.73576,-0.28352 16.73309,-1.81264 z m 18.39191,1.31425 c 0.75714,-0.71429 1.01191,-0.71429 1.27381,0 0.19573,0.53382 1.62213,0.89286 3.54716,0.89286 h 3.21978 l -0.24359,-7.56316 c -0.23401,-7.26577 -0.32239,-7.63088 -2.2477,-9.28571 -1.74571,-1.50045 -2.71277,-1.72115 -7.5,-1.71162 -3.02274,0.006 -5.92341,0.28196 -6.44594,0.61321 -1.34836,0.85479 -0.81213,4.83603 0.59291,4.40207 2.35746,-0.72814 8.80663,-0.36717 9.10296,0.50949 0.21359,0.63189 -0.70729,0.89594 -3.15058,0.90339 -4.24709,0.013 -6.72688,1.19773 -7.98088,3.81304 -1.98361,4.13695 1.00706,8.31929 5.9489,8.31929 1.61521,0 3.36264,-0.40179 3.88317,-0.89286 z m 18.625,-4.30535 c 0,-6.64471 1.14343,-8.5699 4.89578,-8.24297 2.54077,0.22136 2.60962,0.16163 2.82591,-2.45168 0.21985,-2.65631 0.19953,-2.67857 -2.44375,-2.67857 -1.47786,0 -3.24745,0.5267 -3.9717,1.18213 -1.21547,1.09999 -1.30624,1.09999 -1.30624,0 0,-0.92486 -0.69955,-1.18213 -3.21428,-1.18213 h -3.21429 v 8.80952 c 0,4.84524 0.21429,9.02381 0.47619,9.28572 0.2619,0.2619 1.70833,0.47619 3.21429,0.47619 h 2.73809 z"
       style="opacity:0;fill:#890000;fill-opacity:0.64824122;stroke:#000000;stroke-width:0.71428573;stroke-opacity:1" />
    <path
       transform="scale(0.26458333)"
       id="path2307"
       d="m 251.3349,548.38562 c -9.84267,-1.28262 -26.35,-6.0563 -34.83511,-10.07381 -14.62019,-6.92234 -25.1907,-28.11619 -25.15249,-50.43073 0.026,-15.20024 4.70073,-27.61121 13.62168,-36.16453 13.05552,-12.51752 40.61145,-14.45764 66.55901,-4.68619 22.56029,8.49585 36.0807,21.24074 39.44197,37.17963 1.33926,6.35068 1.34245,10.08916 0.0151,17.70079 -1.28418,7.36402 -3.68479,14.30262 -8.08373,23.36474 -5.51968,11.37089 -14.06435,18.48146 -26.23393,21.83095 -4.22256,1.16218 -20.08395,1.9631 -25.33249,1.27915 z m -35.71428,-27.59876 0.35714,-4.13742 4.26335,4.31599 c 4.14432,4.19548 4.36869,4.31599 8.03572,4.31599 2.0748,0 3.77236,-0.24817 3.77236,-0.55149 0,-0.30331 -2.67794,-3.21551 -5.95098,-6.47155 l -5.95098,-5.92006 5.23669,-5.07774 c 2.88019,-2.79275 5.2367,-5.34484 5.2367,-5.67131 0,-0.32646 -1.6774,-0.59357 -3.72754,-0.59357 -3.53525,0 -3.92215,0.1922 -7.5,3.7256 l -3.77246,3.7256 v -3.7256 -3.7256 h -3.57143 -3.57143 v 12.182 12.18199 l 3.39286,-0.21771 3.39285,-0.21771 z m 31.36539,2.76602 c 1.01076,-0.91473 1.49175,-2.2191 1.49175,-4.04543 0,-3.02802 -1.31666,-4.72901 -4.15709,-5.37053 -5.18391,-1.17081 -5.8486,-1.40657 -5.83562,-2.06979 0.0166,-0.84821 5.37906,-0.92976 7.67128,-0.11667 1.46631,0.52013 1.60714,0.35409 1.60714,-1.89474 0,-2.92042 -0.92653,-3.32126 -7.71104,-3.33598 -3.82929,-0.008 -4.75698,0.25048 -6.25,1.74349 -1.93252,1.93253 -2.18116,3.66892 -0.92131,6.43401 0.79853,1.75257 2.27005,2.41593 7.96881,3.59233 1.14435,0.23623 1.8879,0.79038 1.72082,1.28248 -0.33279,0.98017 -5.6989,1.15613 -8.20013,0.2689 -1.4688,-0.52101 -1.60715,-0.35525 -1.60715,1.92567 0,3.01658 0.62905,3.27081 7.6154,3.07768 3.87391,-0.10709 5.47743,-0.46905 6.60714,-1.49142 z m 20.24175,0.97669 c 2.27637,-0.63217 2.67857,-1.04272 2.67857,-2.73411 0,-2.72754 -0.45196,-2.97933 -3.2496,-1.81039 -4.11758,1.72043 -8.89326,1.03571 -8.89326,-1.27508 0,-0.31429 2.74223,-0.57143 6.09385,-0.57143 6.95024,0 7.49769,-0.4464 6.1331,-5.00098 -1.25143,-4.17693 -4.37229,-6.42993 -8.88889,-6.41706 -6.63682,0.0189 -9.9242,3.06474 -9.87705,9.1513 0.0341,4.3953 0.90771,6.18838 3.90601,8.01658 2.55544,1.55816 7.79533,1.83588 12.09727,0.64117 z m 12.67857,-3.78442 c 0,-7.0537 1.67642,-10.43179 4.61694,-9.30341 0.79035,0.30328 1.0954,1.99738 1.25,6.94186 l 0.20449,6.54067 3.03571,0.21965 3.03572,0.21964 v -7.44474 c 0,-6.45008 -0.19779,-7.6962 -1.48042,-9.32679 -1.17997,-1.5001 -2.08995,-1.88204 -4.48392,-1.88204 -1.65193,0 -3.71789,0.50037 -4.59101,1.11193 -1.43682,1.00638 -1.58751,1.00638 -1.58751,0 0,-0.82106 -0.74739,-1.11193 -2.85714,-1.11193 h -2.85714 v 9.28571 9.28572 h 2.85714 2.85714 z m -42.01691,-37.67084 c 5.34193,-2.72525 7.33889,-12.00281 3.64913,-16.95324 -2.72496,-3.65599 -5.60985,-4.72073 -13.59119,-5.01618 l -7.32674,-0.27122 v 11.74769 c 0,6.46122 0.24107,11.99874 0.53571,12.30559 1.04755,1.09095 13.73576,-0.28352 16.73309,-1.81264 z m 18.39191,1.31425 c 0.75714,-0.71429 1.01191,-0.71429 1.27381,0 0.19573,0.53382 1.62213,0.89286 3.54716,0.89286 h 3.21978 l -0.24359,-7.56316 c -0.23401,-7.26577 -0.32239,-7.63088 -2.2477,-9.28571 -1.74571,-1.50045 -2.71277,-1.72115 -7.5,-1.71162 -3.02274,0.006 -5.92341,0.28196 -6.44594,0.61321 -1.34836,0.85479 -0.81213,4.83603 0.59291,4.40207 2.35746,-0.72814 8.80663,-0.36717 9.10296,0.50949 0.21359,0.63189 -0.70729,0.89594 -3.15058,0.90339 -4.24709,0.013 -6.72688,1.19773 -7.98088,3.81304 -1.98361,4.13695 1.00706,8.31929 5.9489,8.31929 1.61521,0 3.36264,-0.40179 3.88317,-0.89286 z m 18.625,-4.30535 c 0,-6.64471 1.14343,-8.5699 4.89578,-8.24297 2.54077,0.22136 2.60962,0.16163 2.82591,-2.45168 0.21985,-2.65631 0.19953,-2.67857 -2.44375,-2.67857 -1.47786,0 -3.24745,0.5267 -3.9717,1.18213 -1.21547,1.09999 -1.30624,1.09999 -1.30624,0 0,-0.92486 -0.69955,-1.18213 -3.21428,-1.18213 h -3.21429 v 8.80952 c 0,4.84524 0.21429,9.02381 0.47619,9.28572 0.2619,0.2619 1.70833,0.47619 3.21429,0.47619 h 2.73809 z"
       style="opacity:0;fill:#890000;fill-opacity:0.64824123;stroke:#000000;stroke-width:0.71428573;stroke-opacity:1" />
    <path
       transform="scale(0.26458333)"
       id="path2311"
       d="m 251.3349,548.38562 c -9.84267,-1.28262 -26.35,-6.0563 -34.83511,-10.07381 -14.62019,-6.92234 -25.1907,-28.11619 -25.15249,-50.43073 0.026,-15.20024 4.70073,-27.61121 13.62168,-36.16453 13.05552,-12.51752 40.61145,-14.45764 66.55901,-4.68619 22.56029,8.49585 36.0807,21.24074 39.44197,37.17963 1.33926,6.35068 1.34245,10.08916 0.0151,17.70079 -1.28418,7.36402 -3.68479,14.30262 -8.08373,23.36474 -5.51968,11.37089 -14.06435,18.48146 -26.23393,21.83095 -4.22256,1.16218 -20.08395,1.9631 -25.33249,1.27915 z m -35.71428,-27.59876 0.35714,-4.13742 4.26335,4.31599 c 4.14432,4.19548 4.36869,4.31599 8.03572,4.31599 2.0748,0 3.77236,-0.24817 3.77236,-0.55149 0,-0.30331 -2.67794,-3.21551 -5.95098,-6.47155 l -5.95098,-5.92006 5.23669,-5.07774 c 2.88019,-2.79275 5.2367,-5.34484 5.2367,-5.67131 0,-0.32646 -1.6774,-0.59357 -3.72754,-0.59357 -3.53525,0 -3.92215,0.1922 -7.5,3.7256 l -3.77246,3.7256 v -3.7256 -3.7256 h -3.57143 -3.57143 v 12.182 12.18199 l 3.39286,-0.21771 3.39285,-0.21771 z m 31.36539,2.76602 c 1.01076,-0.91473 1.49175,-2.2191 1.49175,-4.04543 0,-3.02802 -1.31666,-4.72901 -4.15709,-5.37053 -5.18391,-1.17081 -5.8486,-1.40657 -5.83562,-2.06979 0.0166,-0.84821 5.37906,-0.92976 7.67128,-0.11667 1.46631,0.52013 1.60714,0.35409 1.60714,-1.89474 0,-2.92042 -0.92653,-3.32126 -7.71104,-3.33598 -3.82929,-0.008 -4.75698,0.25048 -6.25,1.74349 -1.93252,1.93253 -2.18116,3.66892 -0.92131,6.43401 0.79853,1.75257 2.27005,2.41593 7.96881,3.59233 1.14435,0.23623 1.8879,0.79038 1.72082,1.28248 -0.33279,0.98017 -5.6989,1.15613 -8.20013,0.2689 -1.4688,-0.52101 -1.60715,-0.35525 -1.60715,1.92567 0,3.01658 0.62905,3.27081 7.6154,3.07768 3.87391,-0.10709 5.47743,-0.46905 6.60714,-1.49142 z m 20.24175,0.97669 c 2.27637,-0.63217 2.67857,-1.04272 2.67857,-2.73411 0,-2.72754 -0.45196,-2.97933 -3.2496,-1.81039 -4.11758,1.72043 -8.89326,1.03571 -8.89326,-1.27508 0,-0.31429 2.74223,-0.57143 6.09385,-0.57143 6.95024,0 7.49769,-0.4464 6.1331,-5.00098 -1.25143,-4.17693 -4.37229,-6.42993 -8.88889,-6.41706 -6.63682,0.0189 -9.9242,3.06474 -9.87705,9.1513 0.0341,4.3953 0.90771,6.18838 3.90601,8.01658 2.55544,1.55816 7.79533,1.83588 12.09727,0.64117 z m 12.67857,-3.78442 c 0,-7.0537 1.67642,-10.43179 4.61694,-9.30341 0.79035,0.30328 1.0954,1.99738 1.25,6.94186 l 0.20449,6.54067 3.03571,0.21965 3.03572,0.21964 v -7.44474 c 0,-6.45008 -0.19779,-7.6962 -1.48042,-9.32679 -1.17997,-1.5001 -2.08995,-1.88204 -4.48392,-1.88204 -1.65193,0 -3.71789,0.50037 -4.59101,1.11193 -1.43682,1.00638 -1.58751,1.00638 -1.58751,0 0,-0.82106 -0.74739,-1.11193 -2.85714,-1.11193 h -2.85714 v 9.28571 9.28572 h 2.85714 2.85714 z m -42.01691,-37.67084 c 5.34193,-2.72525 7.33889,-12.00281 3.64913,-16.95324 -2.72496,-3.65599 -5.60985,-4.72073 -13.59119,-5.01618 l -7.32674,-0.27122 v 11.74769 c 0,6.46122 0.24107,11.99874 0.53571,12.30559 1.04755,1.09095 13.73576,-0.28352 16.73309,-1.81264 z m 18.39191,1.31425 c 0.75714,-0.71429 1.01191,-0.71429 1.27381,0 0.19573,0.53382 1.62213,0.89286 3.54716,0.89286 h 3.21978 l -0.24359,-7.56316 c -0.23401,-7.26577 -0.32239,-7.63088 -2.2477,-9.28571 -1.74571,-1.50045 -2.71277,-1.72115 -7.5,-1.71162 -3.02274,0.006 -5.92341,0.28196 -6.44594,0.61321 -1.34836,0.85479 -0.81213,4.83603 0.59291,4.40207 2.35746,-0.72814 8.80663,-0.36717 9.10296,0.50949 0.21359,0.63189 -0.70729,0.89594 -3.15058,0.90339 -4.24709,0.013 -6.72688,1.19773 -7.98088,3.81304 -1.98361,4.13695 1.00706,8.31929 5.9489,8.31929 1.61521,0 3.36264,-0.40179 3.88317,-0.89286 z m 18.625,-4.30535 c 0,-6.64471 1.14343,-8.5699 4.89578,-8.24297 2.54077,0.22136 2.60962,0.16163 2.82591,-2.45168 0.21985,-2.65631 0.19953,-2.67857 -2.44375,-2.67857 -1.47786,0 -3.24745,0.5267 -3.9717,1.18213 -1.21547,1.09999 -1.30624,1.09999 -1.30624,0 0,-0.92486 -0.69955,-1.18213 -3.21428,-1.18213 h -3.21429 v 8.80952 c 0,4.84524 0.21429,9.02381 0.47619,9.28572 0.2619,0.2619 1.70833,0.47619 3.21429,0.47619 h 2.73809 z"
       style="opacity:0;fill:#ff7f2a;fill-opacity:0.64824123;stroke:#000000;stroke-width:0.71428573;stroke-opacity:1" />
    <path
       transform="scale(0.26458333)"
       id="path2315"
       d="m 258.84806,549.0971 c -11.80089,-0.35169 -25.20893,-3.42635 -39.03114,-8.95042 -3.25928,-1.30257 -5.18958,-2.26997 -7.18334,-3.60002 -4.32238,-2.88349 -7.78972,-6.44108 -11.08696,-11.37551 -8.18655,-12.25147 -12.09929,-29.7997 -10.11894,-45.38243 1.37413,-10.81262 5.2277,-19.74267 11.46987,-26.57964 2.65147,-2.90412 6.10027,-5.55716 9.35407,-7.19575 5.17938,-2.60829 12.0202,-4.50603 19.21665,-5.33097 2.76659,-0.31713 11.74247,-0.31685 14.75288,4.7e-4 9.88454,1.0419 19.5516,3.57131 29.67323,7.76407 18.14298,7.5155 29.6479,17.8961 34.13698,30.80094 3.27227,9.40687 2.85827,20.39136 -1.2363,32.80262 -2.28396,6.923 -5.94055,14.90308 -8.82341,19.25604 -4.95726,7.48519 -11.98468,12.64191 -21.04681,15.44417 -4.42829,1.36935 -9.32688,2.16725 -14.14214,2.30353 -1.28478,0.0364 -2.50644,0.0799 -2.71478,0.0968 -0.20834,0.0169 -1.65728,-0.007 -3.21986,-0.0539 z m -14.88163,-24.33139 c 3.31307,-0.89434 4.75244,-2.92225 4.38899,-6.18364 -0.33006,-2.96176 -2.03762,-4.11134 -7.1803,-4.83397 -1.0096,-0.14187 -2.13022,-0.34089 -2.49026,-0.44226 -1.62314,-0.45703 -1.56022,-2.12113 0.098,-2.59275 1.48372,-0.42199 4.68555,-0.0483 7.15774,0.83538 0.67514,0.24133 1.24309,0.4388 1.26209,0.43882 0.019,2e-5 0.019,-0.97646 0,-2.16997 l -0.0345,-2.17 -0.63135,-0.16265 c -2.06227,-0.5313 -3.78675,-0.72836 -6.31345,-0.72146 -2.15688,0.006 -2.66641,0.0455 -3.49186,0.27126 -2.41554,0.66076 -3.72185,1.85938 -4.13171,3.79109 -0.29054,1.36932 -0.11937,2.98403 0.43103,4.06596 0.83596,1.64328 2.64536,2.45723 6.72549,3.02542 2.16355,0.30129 2.86071,0.56765 3.12188,1.19273 0.15206,0.36394 0.15681,0.52318 0.0273,0.91605 -0.32652,0.99055 -1.53357,1.38403 -3.8817,1.26539 -2.06003,-0.10408 -3.88977,-0.54181 -5.83994,-1.39709 l -0.47351,-0.20767 v 2.1959 2.1959 l 1.04172,0.25807 c 0.57295,0.14194 1.60993,0.3468 2.30441,0.45526 0.69448,0.10845 1.40474,0.22201 1.57836,0.25234 0.17362,0.0303 1.4521,0.0388 2.84106,0.0188 2.07449,-0.0299 2.6977,-0.0829 3.49052,-0.29689 z m 20.37433,0.16193 c 1.33613,-0.20125 3.72139,-0.79788 4.51422,-1.12914 l 0.47341,-0.1978 v -2.14488 c 0,-1.39175 -0.0458,-2.14488 -0.13047,-2.14488 -0.0718,0 -0.39858,0.13586 -0.72627,0.30191 -3.39164,1.71868 -7.30502,2.19712 -9.37821,1.14655 -0.98135,-0.49728 -1.73563,-1.55598 -1.95409,-2.74272 l -0.0872,-0.47351 h 6.53226 6.53226 l -0.0665,-1.9256 c -0.0747,-2.16273 -0.24301,-2.94133 -0.94871,-4.38785 -0.6774,-1.38853 -2.12514,-2.818 -3.56119,-3.51624 -1.38149,-0.67172 -2.27655,-0.89786 -3.91434,-0.989 -4.40116,-0.24489 -7.82751,1.44967 -9.38905,4.64351 -0.79641,1.62892 -1.01109,2.78536 -0.93188,5.01976 0.10105,2.85007 0.72705,4.46803 2.35452,6.08547 1.32754,1.31937 2.83298,2.07899 4.87282,2.45875 1.22629,0.2283 4.279,0.22602 5.80837,-0.004 z m -49.30807,-4.75609 v -4.56895 l 4.5941,4.56895 4.5941,4.56896 h 3.80279 c 2.09154,0 3.8028,-0.0314 3.8028,-0.0697 0,-0.0383 -2.77003,-2.81847 -6.15562,-6.17811 l -6.15562,-6.10844 5.61898,-5.55807 5.61897,-5.55808 -3.55702,-0.007 -3.55702,-0.007 -4.30323,4.24405 -4.30323,4.24404 v -4.24404 -4.24405 h -3.03046 -3.03045 v 11.74302 11.74303 h 3.03045 3.03046 z m 64.9023,-0.23591 c 0,-5.35899 0.0701,-5.99317 0.79598,-7.20249 1.41468,-2.35683 4.72012,-2.25868 5.26445,0.15631 0.1,0.44354 0.17579,2.5989 0.22034,6.26364 l 0.0679,5.58741 h 2.83081 2.83081 l -0.0453,-6.40816 c -0.0396,-5.6093 -0.0725,-6.5026 -0.26375,-7.16577 -0.90536,-3.13989 -3.14645,-4.68283 -6.45319,-4.44283 -1.75676,0.1275 -3.05756,0.71805 -4.44928,2.01994 l -0.79878,0.74721 v -1.21403 -1.21403 h -2.84105 -2.84106 v 8.83883 8.83884 h 2.84106 2.84105 z m -25.4109,-35.04675 c 1.07475,-0.27994 1.90167,-0.78321 2.84031,-1.72866 l 0.85231,-0.85849 v 1.20573 1.20574 h 2.84868 2.84867 l -0.0483,-6.15562 c -0.053,-6.76088 -0.0562,-6.79108 -0.87074,-8.40475 -0.73431,-1.45467 -2.231,-2.54298 -4.18891,-3.04597 -2.4388,-0.62652 -6.54963,-0.52134 -10.21742,0.26143 l -0.97859,0.20885 v 2.19144 c 0,1.2053 0.022,2.19145 0.049,2.19145 0.0269,0 0.41047,-0.16917 0.85232,-0.37592 1.40615,-0.65799 2.61711,-0.90583 4.78083,-0.97847 3.35301,-0.11258 4.56355,0.43735 4.85753,2.2067 l 0.0892,0.53664 -1.68416,0.003 c -0.92629,0.002 -2.37547,0.0566 -3.2204,0.12236 -4.35983,0.33911 -6.47402,1.64865 -7.04982,4.36668 -0.78656,3.71294 1.19025,6.69802 4.79798,7.24518 0.92506,0.1403 2.49018,0.0506 3.44158,-0.19719 z m -21.24552,-0.48659 c 4.13068,-0.62743 7.06088,-2.59646 8.69612,-5.84362 1.65705,-3.29045 1.5626,-8.40568 -0.21314,-11.54425 -1.29487,-2.28865 -3.37485,-3.98993 -5.89446,-4.82126 -2.09036,-0.6897 -5.24514,-0.95945 -11.26952,-0.9636 l -3.50396,-0.002 v 11.75707 11.75706 l 5.398,-0.064 c 4.14102,-0.0491 5.72143,-0.11313 6.78696,-0.27498 z m 41.47939,-4.24142 c 0,-5.08383 0.0764,-5.7512 0.79598,-6.94995 0.74874,-1.24738 1.96889,-1.88224 3.61752,-1.88224 0.70173,0 1.55062,0.17757 2.8154,0.58893 0.20244,0.0658 0.22091,-0.0591 0.22022,-1.48965 -3.8e-4,-0.85884 -0.0369,-2.02621 -0.0812,-2.59416 l -0.0804,-1.03264 -0.91595,-0.0858 c -2.37524,-0.22257 -4.44954,0.65624 -5.96482,2.52711 l -0.40681,0.50228 v -1.29146 -1.29146 h -2.84105 -2.84106 v 8.7757 8.7757 h 2.84106 2.84105 z"
       style="opacity:0;fill:#ff7f2a;fill-opacity:0.64824123;stroke:#000000;stroke-width:0.12626907;stroke-opacity:1" />
  </g>
</svg>
