<svg xmlns="http://www.w3.org/2000/svg" xmlns:xlink="http://www.w3.org/1999/xlink"><symbol id="github" viewBox="0 0 568.034 568.034"><path d="M550.99 0H17.051C8.948 0 2.381 6.567 2.381 14.67v538.694c0 8.104 6.567 14.67 14.67 14.67h177.498v-.129c8.011-.092 14.149-4.577 14.431-12.166.728-19.725.214-39.492.214-58.562-14.296.667-27.944 2.473-41.438 1.695-29.762-1.714-52.632-14.413-64.493-43.556-7.026-17.265-17.613-32.032-34.101-41.886-3.079-1.842-5.771-4.554-8.127-7.308-3.079-3.592-2.503-7.282 2.362-8.268 4.908-.998 10.27-1.695 15.11-.79 19.009 3.568 32.154 15.49 42.216 31.347 19.896 31.371 50.521 40.974 84.976 26.487 1.921-.808 4.363-2.766 4.725-4.553 2.778-13.887 7.968-26.549 18.427-37.65-11.628-2.154-22.399-3.739-32.962-6.188-30.417-7.038-57.742-19.7-77.724-44.848-16.303-20.514-23.758-44.528-27.185-70.086-5.367-40.031-.563-77.503 26.928-109.493 1.389-1.616 2.142-4.927 1.524-6.94-6.885-22.497-5.833-44.805.991-67.051 3.581-11.683 4.578-12.265 16.5-10.637.729.098 1.438.281 2.161.404 23.898 3.954 44.468 15.526 64.731 27.95 2.724 1.671 6.873 2.711 9.866 1.983 48.397-11.744 96.702-11.695 145.093.043 2.809.679 6.561-.288 9.247-1.695 11.016-5.759 21.561-12.454 32.718-17.914 12.98-6.346 26.652-11.12 41.371-10.857 2.576.049 6.561 2.509 7.423 4.786 8.856 23.464 10.723 47.375 3.666 71.794-.753 2.607.367 6.322 1.769 8.892 6.965 12.779 16.689 24.572 21.096 38.127 13.434 41.316 8.538 82.229-9.749 121.06-16.757 35.594-47.834 53.63-84.621 62.933-12.424 3.14-25.153 5.049-38.556 7.681 17.564 18.348 20.318 40.74 20.006 64.192-.324 24.192-.238 48.391-.251 72.589-.006 11.72 5.11 18.195 14.039 18.574-.006.037 188.723.037 188.723.037V14.67C565.653 6.567 559.087 0 550.99 0z"/></symbol><symbol id="telegram" viewBox="0 0 24 24"><circle cx="12" cy="12" fill="#039be5" r="12"/><path d="M5.491 11.74l11.57-4.461c.537-.194 1.006.131.832.943l.001-.001-1.97 9.281c-.146.658-.537.818-1.084.508l-3-2.211-1.447 1.394c-.16.16-.295.295-.605.295l.213-3.053 5.56-5.023c.242-.213-.054-.333-.373-.121l-6.871 4.326-2.962-.924c-.643-.204-.657-.643.136-.953z" fill="#fff"/></symbol><symbol id="twitter" viewBox="0 0 112.197 112.197"><circle cx="56.099" cy="56.098" r="56.098" fill="#55acee"/><path d="M90.461 40.316a26.753 26.753 0 01-7.702 2.109 13.445 13.445 0 005.897-7.417 26.843 26.843 0 01-8.515 3.253 13.396 13.396 0 00-9.79-4.233c-7.404 0-13.409 6.005-13.409 13.409 0 1.051.119 2.074.349 3.056-11.144-.559-21.025-5.897-27.639-14.012a13.351 13.351 0 00-1.816 6.742c0 4.651 2.369 8.757 5.965 11.161a13.314 13.314 0 01-6.073-1.679l-.001.17c0 6.497 4.624 11.916 10.757 13.147a13.362 13.362 0 01-3.532.471c-.866 0-1.705-.083-2.523-.239 1.706 5.326 6.657 9.203 12.526 9.312a26.904 26.904 0 01-16.655 5.74c-1.08 0-2.15-.063-3.197-.188a37.929 37.929 0 0020.553 6.025c24.664 0 38.152-20.432 38.152-38.153 0-.581-.013-1.16-.039-1.734a27.192 27.192 0 006.692-6.94z" fill="#f1f2f2"/></symbol><symbol id="vk" viewBox="0 0 112.196 112.196"><circle cx="56.098" cy="56.098" r="56.098" fill="#4d76a1"/><path d="M53.979 80.702h4.403s1.33-.146 2.009-.878c.625-.672.605-1.934.605-1.934s-.086-5.908 2.656-6.778c2.703-.857 6.174 5.71 9.853 8.235 2.782 1.911 4.896 1.492 4.896 1.492l9.837-.137s5.146-.317 2.706-4.363c-.2-.331-1.421-2.993-7.314-8.463-6.168-5.725-5.342-4.799 2.088-14.702 4.525-6.031 6.334-9.713 5.769-11.29-.539-1.502-3.867-1.105-3.867-1.105l-11.076.069s-.821-.112-1.43.252c-.595.357-.978 1.189-.978 1.189s-1.753 4.667-4.091 8.636c-4.932 8.375-6.904 8.817-7.71 8.297-1.875-1.212-1.407-4.869-1.407-7.467 0-8.116 1.231-11.5-2.397-12.376-1.204-.291-2.09-.483-5.169-.514-3.952-.041-7.297.012-9.191.94-1.26.617-2.232 1.992-1.64 2.071.732.098 2.39.447 3.269 1.644 1.135 1.544 1.095 5.012 1.095 5.012s.652 9.554-1.523 10.741c-1.493.814-3.541-.848-7.938-8.446-2.253-3.892-3.954-8.194-3.954-8.194s-.328-.804-.913-1.234c-.71-.521-1.702-.687-1.702-.687l-10.525.069s-1.58.044-2.16.731c-.516.611-.041 1.875-.041 1.875s8.24 19.278 17.57 28.993c8.555 8.907 18.27 8.322 18.27 8.322z" fill-rule="evenodd" clip-rule="evenodd" fill="#fff"/></symbol></svg>